<svg width="80" height="80" viewBox="0 0 80 80" fill="none" xmlns="http://www.w3.org/2000/svg">
<path fill-rule="evenodd" clip-rule="evenodd" d="M40 0C17.908 0 0 17.908 0 40C0 62.092 17.908 80 40 80C62.092 80 80 62.092 80 40C80 17.908 62.092 0 40 0ZM26 30C26 28.1615 26.3621 26.341 27.0657 24.6424C27.7693 22.9439 28.8005 21.4005 30.1005 20.1005C31.4005 18.8005 32.9439 17.7693 34.6424 17.0657C36.341 16.3621 38.1615 16 40 16C41.8385 16 43.659 16.3621 45.3576 17.0657C47.0561 17.7693 48.5995 18.8005 49.8995 20.1005C51.1995 21.4005 52.2307 22.9439 52.9343 24.6424C53.6379 26.341 54 28.1615 54 30C54 33.713 52.525 37.274 49.8995 39.8995C47.274 42.525 43.713 44 40 44C36.287 44 32.726 42.525 30.1005 39.8995C27.475 37.274 26 33.713 26 30ZM65.032 59.936C62.0377 63.7025 58.2312 66.7438 53.8967 68.8328C49.5621 70.9218 44.8117 72.0045 40 72C35.1883 72.0045 30.4379 70.9218 26.1033 68.8328C21.7688 66.7438 17.9623 63.7025 14.968 59.936C21.452 55.284 30.3 52 40 52C49.7 52 58.548 55.284 65.032 59.936Z" fill="#D9D9D9"/>
</svg>
